<svg id="Layer_1" data-name="Layer 1" xmlns="http://www.w3.org/2000/svg" xmlns:xlink="http://www.w3.org/1999/xlink" viewBox="0 0 184.69 220.3"><defs><style>.cls-1{fill:#f3c1bd;}.cls-2{fill:url(#linear-gradient);}.cls-3{fill:#f3f3f3;}.cls-4{fill:url(#linear-gradient-2);}.cls-5{fill:#64717c;}.cls-6{fill:#3b4a62;}.cls-7{fill:#db2e26;}.cls-8,.cls-9{isolation:isolate;}.cls-8{opacity:0.05;}.cls-9{opacity:0.07;}.cls-10{fill:#fff;}.cls-11{fill:#edbe00;}</style><linearGradient id="linear-gradient" x1="-216.94" y1="781.78" x2="-216.94" y2="785.84" gradientTransform="translate(1200 -3718.38) scale(5)" gradientUnits="userSpaceOnUse"><stop offset="0.44" stop-color="#878786"/><stop offset="0.59" stop-color="#9f9f9e"/><stop offset="0.86" stop-color="#c3c3c3"/><stop offset="1" stop-color="#d1d1d1"/></linearGradient><linearGradient id="linear-gradient-2" x1="-402.01" y1="337.71" x2="-400.07" y2="345.81" gradientTransform="translate(-1890 1739.38) rotate(180) scale(5)" gradientUnits="userSpaceOnUse"><stop offset="0" stop-color="#c3cdd9"/><stop offset="1" stop-color="#9fa7b0"/></linearGradient></defs><path class="cls-1" d="M187.62,20.18h-62a10.34,10.34,0,1,1-20.67,0H43A10.36,10.36,0,0,0,32.62,30.52v186A10.36,10.36,0,0,0,43,226.85H187.62A10.37,10.37,0,0,0,198,216.52v-186A10.37,10.37,0,0,0,187.62,20.18Z" transform="translate(-32.62 -9.85)"/><path class="cls-2" d="M182.45,216.52H48.12A4.89,4.89,0,0,1,43,211.35v-46.5H187.62v46.5A4.89,4.89,0,0,1,182.45,216.52Z" transform="translate(-32.62 -9.85)"/><path class="cls-3" d="M182.45,206.19H48.12A4.89,4.89,0,0,1,43,201V35.68a4.88,4.88,0,0,1,5.17-5.16H182.45a4.88,4.88,0,0,1,5.17,5.16V201A4.89,4.89,0,0,1,182.45,206.19Z" transform="translate(-32.62 -9.85)"/><path class="cls-4" d="M151.45,40.85V20.18h-21.7a15.29,15.29,0,0,0-28.93,0H79.12V40.85A4.89,4.89,0,0,0,84.29,46h62A4.88,4.88,0,0,0,151.45,40.85ZM115.29,20.18a4.88,4.88,0,0,1,5.16,5.17,5.17,5.17,0,1,1-10.33,0A4.89,4.89,0,0,1,115.29,20.18Z" transform="translate(-32.62 -9.85)"/><circle class="cls-5" cx="94.7" cy="107.03" r="5"/><path class="cls-6" d="M84.65,67.62l91.92,91.92L169.12,167a7,7,0,0,1-9.81.13L77.07,84.88a7,7,0,0,1,.13-9.81Z" transform="translate(-32.62 -9.85)"/><path class="cls-6" d="M210.11,34.08a27.48,27.48,0,0,0-38,.88c-12.72,12.72-9.49,32.48-15.41,38.41L142.06,88l14.13,14.13,14.64-14.64c5.92-5.92,25.68-2.69,38.4-15.4A27.49,27.49,0,0,0,210.11,34.08Z" transform="translate(-32.62 -9.85)"/><path class="cls-1" d="M186,149.65l-28.87-48.4L150,94.18l-7.07-7.07L94.54,58.24a6.85,6.85,0,0,0-8.46.87L79.3,65.9a5.37,5.37,0,0,0,0,7.07l91.92,91.92a5.37,5.37,0,0,0,7.07,0l6.79-6.78A6.84,6.84,0,0,0,186,149.65Z" transform="translate(-32.62 -9.85)"/><path class="cls-6" d="M186,149.65l-28.87-48.4L142.94,87.11,94.54,58.24a7,7,0,0,0-8.17.59l99,99A7,7,0,0,0,186,149.65Z" transform="translate(-32.62 -9.85)"/><path class="cls-7" d="M215.85,194a3.78,3.78,0,0,0-1.2-2.75l-2.55-2.46,1.69-3a3.72,3.72,0,0,0,.29-3,3.77,3.77,0,0,0-2-2.24L208.9,179l.68-3.36a3.71,3.71,0,0,0-3.22-4.44l-3.51-.49-.39-3.41a3.73,3.73,0,0,0-1.51-2.59,3.77,3.77,0,0,0-2.93-.64l-3.49.61-1.43-3.12a3.72,3.72,0,0,0-5.22-1.69l-3.12,1.66L182.43,159a3.74,3.74,0,0,0-2.74-1.2h0a3.75,3.75,0,0,0-2.75,1.21l-2.46,2.55-3-1.68a3.73,3.73,0,0,0-5.22,1.69l-1.55,3.19-3.36-.68a3.69,3.69,0,0,0-2.93.64,3.73,3.73,0,0,0-1.51,2.59l-.49,3.5-3.42.39a3.74,3.74,0,0,0-3.23,4.45l.62,3.48-3.12,1.43a3.73,3.73,0,0,0-1.69,5.22l1.66,3.13-2.52,2.32a3.71,3.71,0,0,0-1.21,2.74,3.78,3.78,0,0,0,1.2,2.75l2.55,2.46-1.68,3a3.72,3.72,0,0,0,1.7,5.22l3.18,1.55-.68,3.36a3.72,3.72,0,0,0,.63,2.93,3.82,3.82,0,0,0,2.6,1.52l3.51.48.39,3.4a3.73,3.73,0,0,0,4.44,3.23l3.49-.62,1.43,3.13a3.71,3.71,0,0,0,5.21,1.69l3.13-1.66,2.32,2.53a3.78,3.78,0,0,0,2.75,1.2h0a3.74,3.74,0,0,0,2.74-1.2l2.46-2.55,3,1.68a3.72,3.72,0,0,0,5.22-1.7l1.55-3.18,3.36.68a3.73,3.73,0,0,0,4.44-3.23l.49-3.5,3.41-.4a3.73,3.73,0,0,0,2.59-1.51,3.69,3.69,0,0,0,.64-2.93l-.62-3.49,3.12-1.42a3.73,3.73,0,0,0,1.7-5.23l-1.66-3.12,2.53-2.32A3.76,3.76,0,0,0,215.85,194Z" transform="translate(-32.62 -9.85)"/><path class="cls-8" d="M177.22,210.44a3.88,3.88,0,0,1-3.42-2,45.82,45.82,0,0,0-16.8-17l-.64-.32.75-3.1h.71c9.78,0,15.15,3.47,19,7.11,6-9.65,18.82-15.57,24.27-17l.73-.19,1.36,3-.63.43c-11.52,7.83-17.95,19-21.78,26.76A4,4,0,0,1,177.22,210.44Z" transform="translate(-32.62 -9.85)"/><path class="cls-9" d="M177.22,209.54a3,3,0,0,1-2.63-1.58,46.33,46.33,0,0,0-17.18-17.31l.41-1.71c10.74,0,15.87,4.31,19.21,7.65,5.6-10,18.64-16.09,24.3-17.53l.73,1.62c-11.69,7.95-18.2,19.28-22.08,27.11A3.08,3.08,0,0,1,177.22,209.54Z" transform="translate(-32.62 -9.85)"/><path class="cls-10" d="M157.82,189.84a47,47,0,0,1,17.56,17.68,2.12,2.12,0,0,0,3.79-.13c3.71-7.5,10.23-19.2,22.38-27.45-6.47,1.65-19.43,8.26-24.29,18.16C174,194.8,169.16,189.84,157.82,189.84Z" transform="translate(-32.62 -9.85)"/><path class="cls-11" d="M79.17,124.48V133h22.21v-8.47a3.18,3.18,0,0,0-2.2-3c-4.31-1.51-4-7.65-2.78-11.3a6.13,6.13,0,0,0-.24-4.81,6.66,6.66,0,0,0-11.77,0,6.17,6.17,0,0,0-.23,4.81c1.2,3.65,1.53,9.79-2.78,11.3A3.19,3.19,0,0,0,79.17,124.48Z" transform="translate(-32.62 -9.85)"/><path class="cls-6" d="M74.73,132.8v11.25h31.09V132.8a4.3,4.3,0,0,0-4.3-4.3H79A4.31,4.31,0,0,0,74.73,132.8Z" transform="translate(-32.62 -9.85)"/><path class="cls-1" d="M64,193.65a11.08,11.08,0,0,0,.61,6.67,9.81,9.81,0,0,0,8.85,5.91h33.59a9.81,9.81,0,0,0,8.85-5.91,10.93,10.93,0,0,0,.61-6.67l-1.44-7.38a69.72,69.72,0,0,1,0-26.7l1.44-7.38a10.93,10.93,0,0,0-.61-6.67,9.81,9.81,0,0,0-8.85-5.91H73.48a9.82,9.82,0,0,0-8.85,5.91,11.08,11.08,0,0,0-.61,6.67l1.44,7.38a69.72,69.72,0,0,1,0,26.7Z" transform="translate(-32.62 -9.85)"/><path class="cls-6" d="M99.16,155.15h0a2.22,2.22,0,0,0-2.22-2.22H83.61a2.23,2.23,0,0,0-2.22,2.22h0a2.22,2.22,0,0,0,2.22,2.22H96.94A2.21,2.21,0,0,0,99.16,155.15Z" transform="translate(-32.62 -9.85)"/><path class="cls-6" d="M99.16,190.69h0a2.21,2.21,0,0,0-2.22-2.22H83.61a2.22,2.22,0,0,0-2.22,2.22h0a2.23,2.23,0,0,0,2.22,2.22H96.94A2.22,2.22,0,0,0,99.16,190.69Z" transform="translate(-32.62 -9.85)"/><path class="cls-6" d="M94.72,164h0a2.21,2.21,0,0,0-2.22-2.22H88.06A2.21,2.21,0,0,0,85.84,164h0a2.21,2.21,0,0,0,2.22,2.22H92.5A2.22,2.22,0,0,0,94.72,164Z" transform="translate(-32.62 -9.85)"/><path class="cls-6" d="M94.72,172.92h0a2.21,2.21,0,0,0-2.22-2.22H88.06a2.21,2.21,0,0,0-2.22,2.22h0a2.21,2.21,0,0,0,2.22,2.22H92.5A2.22,2.22,0,0,0,94.72,172.92Z" transform="translate(-32.62 -9.85)"/><path class="cls-6" d="M94.72,181.8h0a2.22,2.22,0,0,0-2.22-2.22H88.06a2.22,2.22,0,0,0-2.22,2.22h0A2.22,2.22,0,0,0,88.06,184H92.5A2.22,2.22,0,0,0,94.72,181.8Z" transform="translate(-32.62 -9.85)"/></svg>