<?xml version="1.0" encoding="utf-8"?>
<!-- Generator: Adobe Illustrator 25.3.0, SVG Export Plug-In . SVG Version: 6.00 Build 0)  -->
<svg version="1.1" id="Layer_1" xmlns="http://www.w3.org/2000/svg" xmlns:xlink="http://www.w3.org/1999/xlink" x="0px" y="0px"
	 viewBox="0 0 240 240" style="enable-background:new 0 0 240 240;" xml:space="preserve">
<style type="text/css">
	.st0{fill:#3D639B;}
	.st1{fill:url(#SVGID_1_);}
	.st2{fill:#3B4A62;}
	.st3{fill:#FFFFFF;}
	.st4{fill:#F3C1BD;}
	.st5{fill:#E0A7A4;}
	.st6{opacity:5.000000e-02;enable-background:new    ;}
	.st7{opacity:7.000000e-02;enable-background:new    ;}
</style>
<path class="st0" d="M20,140h-3.6c-7.5,0-14.1-4.7-15.9-11.4l0,0c-2.6-9.5,5.2-18.6,15.9-18.6H20V140z"/>
<linearGradient id="SVGID_1_" gradientUnits="userSpaceOnUse" x1="-686.912" y1="95.8" x2="-690.9127" y2="95.8" gradientTransform="matrix(-5 0 0 5 -3310 -353.9999)">
	<stop  offset="0" style="stop-color:#C48F0C"/>
	<stop  offset="0.251" style="stop-color:#D19B16"/>
	<stop  offset="0.619" style="stop-color:#DCA51F"/>
	<stop  offset="1" style="stop-color:#E0A922"/>
</linearGradient>
<path class="st1" d="M120,140h3.6c7.5,0,14.1-4.7,15.9-11.4l0,0c2.6-9.5-5.2-18.6-15.9-18.6H120V140z"/>
<path class="st2" d="M130,128.3c0,33.1-26.9,56.7-60,56.7s-60-23.5-60-56.7S36.9,65,70,65S130,95.2,130,128.3z"/>
<ellipse class="st3" cx="52.5" cy="115" rx="7.5" ry="5"/>
<ellipse class="st3" cx="87.5" cy="115" rx="7.5" ry="5"/>
<path class="st0" d="M63.6,50c-21.3-4.2-28.1,27.5,0,27.5C75.9,77.5,100,70,100,50C100,50,87,54.6,63.6,50z"/>
<path class="st3" d="M70,158.8c-5.8,0-11.5-1.4-17.2-4.3c-2.5-1.2-3.5-4.2-2.2-6.7c1.2-2.5,4.2-3.5,6.7-2.2c8.6,4.3,16.9,4.3,25.5,0
	c2.5-1.2,5.5-0.2,6.7,2.2c1.2,2.5,0.2,5.5-2.2,6.7C81.5,157.3,75.8,158.8,70,158.8z"/>
<path class="st4" d="M120,140h-3.6c-7.5,0-14.1-4.7-15.9-11.4l0,0c-2.6-9.5,5.2-18.6,15.9-18.6h3.6V140z"/>
<path class="st4" d="M220,140h3.6c7.5,0,14.1-4.7,15.9-11.4l0,0c2.6-9.5-5.2-18.6-15.9-18.6H220V140z"/>
<path class="st2" d="M230,128.3c0,33.1-26.9,56.7-60,56.7s-60-23.5-60-56.7S136.9,65,170,65S230,95.2,230,128.3z"/>
<ellipse class="st3" cx="152.5" cy="115" rx="7.5" ry="5"/>
<ellipse class="st3" cx="187.5" cy="115" rx="7.5" ry="5"/>
<path class="st5" d="M163.6,50c-21.3-4.2-28.1,27.5,0,27.5C175.9,77.5,200,70,200,50C200,50,187,54.6,163.6,50z"/>
<path class="st3" d="M170,158.8c-5.8,0-11.5-1.4-17.2-4.3c-2.5-1.2-3.5-4.2-2.2-6.7c1.2-2.5,4.2-3.5,6.7-2.2
	c8.6,4.3,16.9,4.3,25.5,0c2.5-1.2,5.5-0.2,6.7,2.2c1.2,2.5,0.2,5.5-2.2,6.7C181.5,157.3,175.8,158.8,170,158.8z"/>
<circle class="st4" cx="111.3" cy="158.8" r="38.8"/>
<g>
	<path class="st6" d="M130.8,151.8h-13.6v-13.6c0-2.2-1.7-3.9-3.9-3.9h-3.9c-2.2,0-3.9,1.7-3.9,3.9v13.6H91.9
		c-2.2,0-3.9,1.7-3.9,3.9v3.9c0,2.2,1.7,3.9,3.9,3.9h13.6v13.7c0,2.2,1.7,3.9,3.9,3.9h3.9c2.2,0,3.9-1.7,3.9-3.9v-13.7h13.6
		c2.2,0,3.9-1.7,3.9-3.9v-3.9C134.7,153.6,133,151.8,130.8,151.8z"/>
	<path class="st7" d="M130.8,152.8h-14.6v-14.6c0-1.6-1.3-2.9-2.9-2.9h-3.9c-1.6,0-2.9,1.3-2.9,2.9v14.6H91.9
		c-1.6,0-2.9,1.3-2.9,2.9v3.9c0,1.6,1.3,2.9,2.9,2.9h14.6v14.6c0,1.6,1.3,2.9,2.9,2.9h3.9c1.6,0,2.9-1.3,2.9-2.9v-14.6h14.6
		c1.6,0,2.9-1.3,2.9-2.9v-3.9C133.7,154.1,132.4,152.8,130.8,152.8z"/>
	<path class="st2" d="M109.4,136.2h3.9c1.1,0,1.9,0.9,1.9,2v39c0,1.1-0.9,1.9-1.9,1.9h-3.9c-1.1,0-1.9-0.9-1.9-1.9v-39
		C107.4,137.1,108.3,136.2,109.4,136.2z"/>
	<path class="st2" d="M132.7,155.7v3.9c0,1.1-0.9,1.9-1.9,1.9h-39c-1.1,0-1.9-0.9-1.9-1.9v-3.9c0-1.1,0.9-1.9,1.9-1.9h39
		C131.9,153.8,132.7,154.6,132.7,155.7z"/>
</g>
</svg>
