<?xml version="1.0" encoding="utf-8"?>
<!-- Generator: Adobe Illustrator 25.3.0, SVG Export Plug-In . SVG Version: 6.00 Build 0)  -->
<svg version="1.1" id="Layer_1" xmlns="http://www.w3.org/2000/svg" xmlns:xlink="http://www.w3.org/1999/xlink" x="0px" y="0px"
	 viewBox="0 0 240 240" style="enable-background:new 0 0 240 240;" xml:space="preserve">
<style type="text/css">
	.st0{fill:#E0A7A4;}
	.st1{fill:#3B4A62;}
	.st2{fill:#37547F;}
	.st3{font-family:'PainterPERSONALUSEONLY';}
	.st4{font-size:14.6447px;}
	.st5{font-family:'Rockwell-ExtraBold';}
	.st6{font-size:112.9992px;}
	.st7{fill:#FFFFFF;}
</style>
<path class="st0" d="M19.4,53.7L65,40v65H29.1c-2.4,0-4.4-1.7-4.9-4l-8.3-41.5C15.4,56.9,16.9,54.4,19.4,53.7z"/>
<path class="st1" d="M23.3,52.5l-4,1.2c-2.5,0.7-4,3.2-3.5,5.8l8.3,41.5c0.5,2.3,2.5,4,4.9,4h4.8L23.3,52.5z"/>
<path class="st0" d="M220.6,53.7L175,40v65h35.9c2.4,0,4.4-1.7,4.9-4l8.3-41.5C224.6,56.9,223.1,54.4,220.6,53.7z"/>
<path class="st1" d="M216.7,52.5l4,1.2c2.5,0.7,4,3.2,3.5,5.8l-8.3,41.5c-0.5,2.3-2.5,4-4.9,4h-4.8L216.7,52.5z"/>
<path class="st1" d="M180,185.3V99.1L175,40l-17.2-4.7c-24.7-6.7-50.8-6.7-75.5,0L65,40l-5,60.5l0,85c0,2.5,1.8,4.6,4.2,4.9
	c20,2.9,24.5,21.6,25.5,30.2c0.3,2.5,2.4,4.4,5,4.4h50.5c2.5,0,4.6-1.8,4.9-4.3c1.3-10.7,7.1-28.1,25.5-30.4
	C178.1,190,180,187.9,180,185.3z"/>
<path class="st0" d="M120,185L120,185c-16.6,0-30,13.4-30,30v5c0,2.8,2.2,5,5,5h50c2.8,0,5-2.2,5-5v-5C150,198.4,136.6,185,120,185z
	"/>
<path class="st2" d="M120,195c11,0,20,9,20,20h-40C100,204,109,195,120,195 M120,185c-16.6,0-30,13.4-30,30v5c0,2.8,2.2,5,5,5h50
	c2.8,0,5-2.2,5-5v-5C150,198.4,136.6,185,120,185L120,185z"/>
<ellipse class="st2" cx="120" cy="50" rx="30" ry="20"/>
<ellipse class="st0" cx="120" cy="50" rx="20" ry="10"/>
<path class="st2" d="M60,180v5.4c0,2.5,1.8,4.5,4.2,4.9c13.4,2.2,23.9,14.6,25.5,30.3c0.3,2.5,2.4,4.4,4.9,4.4h5.3
	C100,200.1,82.1,180,60,180z"/>
<path class="st2" d="M180,180v5.4c0,2.5-1.8,4.5-4.2,4.9c-13.3,2.2-23.9,14.6-25.5,30.3c-0.3,2.5-2.4,4.4-4.9,4.4H140
	C140,200.1,157.9,180,180,180z"/>
<text transform="matrix(1 0 0 1 107.9834 176.1349)" class="st0 st3 st4">1</text>
<text transform="matrix(1 0 0 1 80.0002 157.4783)" class="st0 st5 st6">1</text>
<polygon class="st7" points="159.9,101.3 146.9,102.7 140.7,114.2 135.4,102.3 122.5,100 132.2,91.2 130.4,78.2 141.8,84.7 
	153.6,79.1 150.9,91.9 "/>
</svg>
