<?xml version="1.0" encoding="utf-8"?>
<!-- Generator: Adobe Illustrator 25.3.0, SVG Export Plug-In . SVG Version: 6.00 Build 0)  -->
<svg version="1.1" id="Layer_1" xmlns="http://www.w3.org/2000/svg" xmlns:xlink="http://www.w3.org/1999/xlink" x="0px" y="0px"
	 viewBox="0 0 48 48" style="enable-background:new 0 0 48 48;" xml:space="preserve">
<style type="text/css">
	.st0{fill:#3B4A62;}
	.st1{fill:#E0A7A4;}
	.st2{fill:#FFFFFF;}
</style>
<g>
	<path class="st0" d="M12.9,28.3H12c-1.9,0-3.5-1.2-4-2.8l0,0c-0.6-2.4,1.3-4.6,4-4.6h0.9V28.3z"/>
	<path class="st0" d="M37.9,28.3h0.9c1.9,0,3.5-1.2,4-2.8l0,0c0.6-2.4-1.3-4.6-4-4.6h-0.9V28.3z"/>
	<path class="st1" d="M40.4,25.4c0,8.3-6.7,14.2-15,14.2s-15-5.9-15-14.2s6.7-15.8,15-15.8S40.4,17.1,40.4,25.4z"/>
	<path class="st0" d="M23.8,5.8c-5.3-1-7,6.9,0,6.9c3.1,0,9.1-1.9,9.1-6.9C32.9,5.8,29.7,7,23.8,5.8z"/>
</g>
<g>
	<path class="st0" d="M11,38.9L11,38.9c-0.8-0.8-0.8-2,0-2.8l6-6l2.8,2.8l-6,6C13,39.7,11.7,39.7,11,38.9z"/>
	<path class="st0" d="M32.1,17.9c-1.9-1.9-4.4-3-7.1-3s-5.2,1.1-7.1,3c-1.9,1.9-3,4.4-3,7.1s1.1,5.2,3,7.1c1.9,1.9,4.4,3,7.1,3
		s5.2-1.1,7.1-3c1.9-1.9,3-4.4,3-7.1S34,19.8,32.1,17.9z M16.1,25.1c0-2.4,0.9-4.6,2.6-6.2s3.9-2.6,6.2-2.6c2.1,0,4.1,0.8,5.7,2.1
		L18.3,30.8C16.9,29.2,16.1,27.2,16.1,25.1z M31.2,31.3c-1.7,1.7-3.9,2.6-6.2,2.6c-2.1,0-4.1-0.8-5.7-2.1l12.4-12.4
		c1.4,1.6,2.1,3.6,2.1,5.7C33.7,27.4,32.8,29.6,31.2,31.3z"/>
	<path class="st2" d="M20.2,20.1c0,0-0.1,0.1-0.1,0.1c-2.7,2.7-2.7,7,0,9.7s7,2.7,9.7,0c0,0,0.1-0.1,0.1-0.1L20.2,20.1z"/>
	<path class="st0" d="M29.8,29.8c2.6-2.7,2.6-7-0.1-9.6s-6.9-2.7-9.6-0.1L29.8,29.8z"/>
</g>
</svg>
