<?xml version="1.0" encoding="utf-8"?>
<!-- Generator: Adobe Illustrator 25.3.0, SVG Export Plug-In . SVG Version: 6.00 Build 0)  -->
<svg version="1.1" id="Layer_1" xmlns="http://www.w3.org/2000/svg" xmlns:xlink="http://www.w3.org/1999/xlink" x="0px" y="0px"
	 viewBox="0 0 240 240" style="enable-background:new 0 0 240 240;" xml:space="preserve">
<style type="text/css">
	.st0{fill:url(#SVGID_1_);}
	.st1{fill:#3B4A62;}
	.st2{fill:#E2B3B0;}
	.st3{fill:#FFFFFF;}
	.st4{fill:#F3C1BD;}
	.st5{opacity:5.000000e-02;enable-background:new    ;}
	.st6{opacity:7.000000e-02;enable-background:new    ;}
</style>
<linearGradient id="SVGID_1_" gradientUnits="userSpaceOnUse" x1="-203" y1="357.8756" x2="-197" y2="357.8756" gradientTransform="matrix(5 0 0 -5 1200 1914.3779)">
	<stop  offset="0" style="stop-color:#FFCF54"/>
	<stop  offset="0.261" style="stop-color:#FDCB4D"/>
	<stop  offset="0.639" style="stop-color:#F7C13A"/>
	<stop  offset="1" style="stop-color:#F0B421"/>
</linearGradient>
<circle class="st0" cx="200" cy="125" r="15"/>
<path class="st1" d="M183.2,115.8l-0.7-0.8C170,105,170,50,170,50h-10v87.5c0,12.4,10,22.5,22.5,22.5c11.8,0,21.5-9,22.4-20.6
	L183.2,115.8z"/>
<path class="st2" d="M125,57.5l62.9-7.5c2.9-0.5,2.7-4.7-0.2-5L125,35V57.5z"/>
<circle class="st1" cx="110" cy="45" r="20"/>
<circle class="st3" cx="115" cy="40" r="5"/>
<path class="st1" d="M144.8,125c-1.6-28.2-16.4-42-28.5-53.2C105.9,62.1,100,56,100,45h10V25l-30-5v25c0,2.4,0.2,4.8,0.5,7
	c0,0.3,0.1,0.5,0.2,0.8c4.7,29.1,34.3,40.9,34.3,54.7c0,15-18.8,17.5-25,17.5h-3.3c-34.8,0-58.9,34.6-46.9,67.3l9,24.4
	c0.7,2,2.6,3.3,4.7,3.3H65c44.2,0,80-35.8,80-80v-15H144.8z"/>
<path class="st4" d="M86.5,195c-18.5,10.4-42.9,12.6-55.9,15.1c-3.5,0.6-6.4-2.3-5.7-5.7c2.5-13,4.6-37.4,15.1-55.9c0,0.5,0,1,0,1.5
	c0,24.9,20.2,45,45,45C85.5,195,86,195,86.5,195z"/>
<path class="st1" d="M98.2,186.2c-3.5,3.4-7.4,6.3-11.8,8.7c-0.5,0-1,0-1.5,0c-24.8,0-45-20.1-45-45c0-0.5,0-1,0.1-1.5
	c2.4-4.4,5.2-8.3,8.7-11.8c18.8-18.8,43.9-21.6,57.5-8S117.1,167.5,98.2,186.2z"/>
<path class="st5" d="M109.8,125.2c-1.3-1.3-2.8-2.6-4.4-3.6c-0.9,0.4-1.8,0.8-2.7,1.2c-1,0.4-2.2,0.8-3.2,1c2.4,1.3,4.8,3,6.8,5
	c13.6,13.6,10.8,38.7-8,57.5c-3.5,3.4-7.4,6.3-11.8,8.7c-12.8,7.2-28.4,10.5-41.1,12.6l0.8,2.4l0.9,2.5c13-2.3,28.6-5.6,41.8-13.1
	c4.9-2.7,9.2-5.8,12.8-9.5C122.2,169.4,125.6,141.1,109.8,125.2z"/>
<path class="st6" d="M108,127c-1.6-1.6-3.4-3.1-5.3-4.2c-1,0.4-2.2,0.7-3.2,1c2.5,1.3,4.8,3,6.8,5c13.7,13.6,10.8,38.7-8,57.5
	c-3.5,3.4-7.4,6.3-11.8,8.7c-12.8,7.2-28.4,10.5-41.1,12.6l0.9,2.4c12.9-2.2,28.4-5.4,41.5-12.8c4.7-2.6,8.7-5.7,12.2-9.2
	C119.4,168.6,122.9,141.9,108,127z"/>
<path class="st4" d="M170.7,190.3c0,18.1-14.7,32.7-32.7,32.7s-32.7-14.7-32.7-32.7s14.7-32.7,32.7-32.7S170.7,172.3,170.7,190.3z"
	/>
<path class="st5" d="M154.4,185.4h-11.5V174c0-1.8-1.5-3.3-3.3-3.3h-3.3c-1.8,0-3.3,1.5-3.3,3.3v11.5h-11.5c-1.8,0-3.3,1.5-3.3,3.3
	v3.3c0,1.8,1.5,3.3,3.3,3.3h11.5v11.5c0,1.8,1.5,3.3,3.3,3.3h3.3c1.8,0,3.3-1.5,3.3-3.3v-11.5h11.5c1.8,0,3.3-1.5,3.3-3.3v-3.3
	C157.6,186.9,156.2,185.4,154.4,185.4z"/>
<path class="st6" d="M154.4,186.3h-12.3V174c0-1.4-1.1-2.5-2.5-2.5h-3.3c-1.4,0-2.5,1.1-2.5,2.5v12.3h-12.3c-1.4,0-2.5,1.1-2.5,2.5
	v3.3c0,1.4,1.1,2.5,2.5,2.5h12.3v12.3c0,1.4,1.1,2.5,2.5,2.5h3.3c1.4,0,2.5-1.1,2.5-2.5v-12.3h12.3c1.4,0,2.5-1.1,2.5-2.5v-3.3
	C156.8,187.4,155.7,186.3,154.4,186.3z"/>
<path class="st1" d="M136.4,172.3h3.3c0.9,0,1.6,0.7,1.6,1.6v32.7c0,0.9-0.7,1.6-1.6,1.6h-3.3c-0.9,0-1.6-0.7-1.6-1.6V174
	C134.7,173.1,135.5,172.3,136.4,172.3z"/>
<path class="st1" d="M156,188.7v3.3c0,0.9-0.7,1.6-1.6,1.6h-32.7c-0.9,0-1.6-0.7-1.6-1.6v-3.3c0-0.9,0.7-1.6,1.6-1.6h32.7
	C155.3,187.1,156,187.8,156,188.7z"/>
</svg>
