<?xml version="1.0" encoding="utf-8"?>
<!-- Generator: Adobe Illustrator 25.3.0, SVG Export Plug-In . SVG Version: 6.00 Build 0)  -->
<svg version="1.1" id="Layer_1" xmlns="http://www.w3.org/2000/svg" xmlns:xlink="http://www.w3.org/1999/xlink" x="0px" y="0px"
	 viewBox="0 0 240 240" style="enable-background:new 0 0 240 240;" xml:space="preserve">
<style type="text/css">
	.st0{fill:#F3C1BD;}
	.st1{opacity:5.000000e-02;enable-background:new    ;}
	.st2{opacity:7.000000e-02;enable-background:new    ;}
	.st3{fill:#3B4A62;}
	.st4{fill:url(#SVGID_1_);}
	.st5{fill:url(#SVGID_2_);}
	.st6{fill:#D6A121;}
	.st7{fill:url(#SVGID_3_);}
	.st8{fill:#FFFFFF;}
</style>
<path class="st0" d="M174.8,190.4H61.2c-3.9,0-7.1-3.2-7.1-7.1v-7.1h127.8v7.1C181.9,187.2,178.7,190.4,174.8,190.4z"/>
<path class="st0" d="M181.9,176.2H54.1v-69.6L118,44.4l63.9,62.2V176.2z"/>
<path class="st1" d="M118,48.1c-1.7,0-3.5,0.6-4.9,1.8L93.5,67.6l-39.4,37.1v19.7L118,68l63.9,56.8V105l-39.4-37.5l-19.6-17.6
	C121.5,48.7,119.7,48.1,118,48.1z"/>
<path class="st2" d="M118,44.4c-1.7,0-3.5,0.6-4.9,1.8L93.5,63.8l-39.4,37.2v19.6L118,64.2l63.9,56.4v-19.6l-39.4-37.2l-19.6-17.5
	C121.5,45,119.7,44.4,118,44.4z"/>
<path class="st3" d="M194.8,105.7l-71.9-63c-1.4-1.2-3.2-1.9-5-1.9s-3.6,0.6-5,1.9l-71.9,63c-1.6,1.4-1.7,3.8-0.2,5.3l6.1,6.5
	c1.4,1.5,3.7,1.6,5.2,0.2L118,60.9l65.8,56.8c1.5,1.3,3.8,1.2,5.2-0.2l6.1-6.5C196.5,109.4,196.4,107,194.8,105.7z"/>
<path class="st3" d="M139.3,190.4H96.7v-56.8c0-3.9,3.2-7.1,7.1-7.1h28.4c3.9,0,7.1,3.2,7.1,7.1V190.4z"/>
<path class="st3" d="M458,159.6c-38.7,0-70,24.6-70,51.4v25.7c0,5.5,3.9,10,8.8,10h122.5c4.8,0,8.8-4.5,8.8-10v-25.7
	C528,184.2,496.7,159.6,458,159.6z"/>
<linearGradient id="SVGID_1_" gradientUnits="userSpaceOnUse" x1="-153.321" y1="342.235" x2="-138.4" y2="342.235" gradientTransform="matrix(5 0 0 -5 1200 1914.3779)">
	<stop  offset="0" style="stop-color:#FFCF54"/>
	<stop  offset="0.261" style="stop-color:#FDCB4D"/>
	<stop  offset="0.639" style="stop-color:#F7C13A"/>
	<stop  offset="1" style="stop-color:#F0B421"/>
</linearGradient>
<path class="st4" d="M488,246.8l20-50l-22-32.6c-8.6-2.9-18-4.5-28-4.5c-2.2,0-4.3,0.1-6.5,0.3l-3.8,0.4c-5,0.6-9.8,1.6-14.3,2.9
	l23.2,83.6H488z"/>
<radialGradient id="SVGID_2_" cx="-148.629" cy="-994.6027" r="12.7" gradientTransform="matrix(5 0 0 -4.7725 1200 -4641.0049)" gradientUnits="userSpaceOnUse">
	<stop  offset="0.376" style="stop-color:#261103"/>
	<stop  offset="0.68" style="stop-color:#431D06"/>
	<stop  offset="1" style="stop-color:#662C09"/>
</radialGradient>
<path class="st5" d="M458,51.8c-51.5,0-60,71.6-60,71.6c0,14.1,5.2,23.4,15,28.4c12.3,2.8,29.9,5,45,5s37.7-2.2,50-5
	c5-5.1,10-14.3,10-28.4C518,123.4,509.5,51.8,458,51.8z"/>
<path class="st6" d="M478,165.5c0,7.7-11.3,16.3-20,16.3s-20-8.6-20-16.3c0-10.8,0-28.7,0-28.7h40C478,136.8,478,154.7,478,165.5z"
	/>
<linearGradient id="SVGID_3_" gradientUnits="userSpaceOnUse" x1="-1626.0145" y1="-1031.3977" x2="-1608.5015" y2="-1031.3977" gradientTransform="matrix(-3.997 0 0 -4.4295 -6006.1802 -4471.623)">
	<stop  offset="0" style="stop-color:#FFCF54"/>
	<stop  offset="0.261" style="stop-color:#FDCB4D"/>
	<stop  offset="0.639" style="stop-color:#F7C13A"/>
	<stop  offset="1" style="stop-color:#F0B421"/>
</linearGradient>
<path class="st7" d="M458,42.1c17.3,0,35,3.2,35,44.5c0,3.3,0,26.3,0,29.8c0,14.8-21.4,35.3-35,35.3s-35-20.5-35-35.3
	c0-3.5,0-26.5,0-29.8C423,46.4,440.7,42.1,458,42.1z"/>
<path class="st3" d="M458,31.8c-25.9,0-30,15-30,15c-10.5,1.6-30-2.4-30,80c0,19,11,23.9,15,25c-13-71.8,27.9-49.8,20-95
	c20.2,59.1,77.1-8.4,75,95c5.1-1.5,10-12.5,10-25C518,57.7,495,31.8,458,31.8z"/>
<path class="st1" d="M495.5,241.8c-15.2,0-27.5-12.3-27.5-27.5s12.3-27.5,27.5-27.5c15.2,0,27.5,12.3,27.5,27.5
	S510.7,241.8,495.5,241.8z M473,214.3c0,12.4,10.1,22.5,22.5,22.5s22.5-10.1,22.5-22.5c0,12.4-10.1,22.5-22.5,22.5
	S473,226.7,473,214.3z M495.5,196.8c-9.6,0-17.5,7.9-17.5,17.5c0,9.7,7.9,17.5,17.5,17.5s17.5-7.8,17.5-17.5
	C513,204.6,505.1,196.8,495.5,196.8z"/>
<path class="st2" d="M495.5,239.3c-13.8,0-25-11.2-25-25s11.2-25,25-25s25,11.2,25,25S509.3,239.3,495.5,239.3z M495.5,194.3
	c-11,0-20,9-20,20c0,11,9,20,20,20s20-9,20-20C515.5,203.2,506.5,194.3,495.5,194.3z"/>
<g>
	<path class="st3" d="M78,153.4h-2.1c-4.3,0-8.1-2.9-9.1-7.1l0,0c-1.5-5.9,3-11.7,9.1-11.7H78V153.4z"/>
	<g>
		<path class="st3" d="M158,153.4h2.1c4.3,0,8.1-2.9,9.1-7.1l0,0c1.5-5.9-3-11.7-9.1-11.7H158V153.4z"/>
		<path class="st8" d="M160.4,141.6c0,23.4-19,40-42.4,40s-42.4-16.6-42.4-40s19-44.7,42.4-44.7S160.4,118.2,160.4,141.6z"/>
		<ellipse class="st3" cx="132.1" cy="131" rx="4.7" ry="3.5"/>
		<ellipse class="st3" cx="103.9" cy="131" rx="4.7" ry="3.5"/>
		<path class="st3" d="M115.8,89.8c-11-2.1-14.4,14.1,0,14.1c6.3,0,18.7-3.9,18.7-14.1C134.5,89.8,127.8,92.1,115.8,89.8z"/>
		<path class="st3" d="M134.5,148.6c-1.7,0-6.4,4.9-16.5,4.9s-14.8-4.9-16.5-4.9s-2.4,0.7-2.4,2.4c0,2.8,8.5,14.1,18.8,14.1
			s18.8-11.3,18.8-14.1C136.8,149.4,136.1,148.6,134.5,148.6z"/>
	</g>
</g>
</svg>
