<?xml version="1.0" encoding="utf-8"?>
<!-- Generator: Adobe Illustrator 25.3.0, SVG Export Plug-In . SVG Version: 6.00 Build 0)  -->
<svg version="1.1" id="Layer_1" xmlns="http://www.w3.org/2000/svg" xmlns:xlink="http://www.w3.org/1999/xlink" x="0px" y="0px"
	 viewBox="0 0 240 240" style="enable-background:new 0 0 240 240;" xml:space="preserve">
<style type="text/css">
	.st0{fill:#E0A7A4;}
	.st1{fill:#3B4A62;}
</style>
<path class="st0" d="M92,135.8c-4.1-1.9-8.9-0.2-10.9,3.9c-0.1,0.3-0.2,0.5-0.3,0.8c-2,4.6-0.1,10,4.2,12.4
	c4.1,1.9,8.9,0.2,10.9-3.9c0.1-0.3,0.2-0.5,0.3-0.8C98.2,143.6,96.3,138.3,92,135.8z M100.2,159.4c2.1,2.3,5.6,2.5,7.9,0.4
	c2.3-2.1,2.5-5.6,0.4-7.9l0,0c-2.1-2.3-5.6-2.5-7.9-0.4C98.3,153.6,98.1,157.1,100.2,159.4L100.2,159.4z M105.5,171.3
	c1.4,2.2,4.2,3.1,6.7,2.1c2.2-0.7,3.3-3.1,2.6-5.3c-0.1-0.2-0.1-0.4-0.2-0.6c-1.4-2.2-4.2-3.1-6.7-2.1c-2.2,0.7-3.3,3.1-2.6,5.3
	C105.3,170.9,105.4,171.1,105.5,171.3L105.5,171.3z M106.4,181.8c0.9,2.2,3.1,3.5,5.4,3.1c1.8-0.1,3.2-1.6,3.2-3.4
	c0-0.3-0.1-0.6-0.1-0.9l0,0c-0.9-2.2-3.1-3.5-5.4-3.1c-1.8,0.1-3.2,1.6-3.2,3.4C106.3,181.3,106.3,181.5,106.4,181.8L106.4,181.8z
	 M108.8,187.5c-1.9-0.2-3.6,1.2-3.8,3.1c0,0.2,0,0.5,0,0.7c0.5,2.3,2.6,3.8,4.9,3.8h0c1.9,0.2,3.6-1.2,3.8-3.1c0-0.2,0-0.5,0-0.7
	C113.2,189,111.2,187.4,108.8,187.5L108.8,187.5z M90.3,208.3c-10.2,10.2-35.7,25.5-51,10.2c-5.6-5.5-5.8-14.5-0.3-20.1
	c0.1-0.1,0.2-0.2,0.3-0.3c7.7-7.7,15.3,0,23-7.7s0-20.4,7.7-28.1c6.4-6.4,15.3-5.1,25.5,5.1C104.4,176.4,103.1,195.6,90.3,208.3
	L90.3,208.3z"/>
<path class="st1" d="M91.8,88.8c-4.3,1.5-6.5,6.1-5,10.4c0.1,0.3,0.2,0.6,0.3,0.8c2.4,4.4,7.8,6.2,12.4,4.2c4.3-1.5,6.5-6.1,5-10.4
	c-0.1-0.3-0.2-0.6-0.3-0.8C101.7,88.7,96.4,86.8,91.8,88.8z M80.6,84.8c2.3,2.1,5.8,1.9,7.9-0.4c2.1-2.3,1.9-5.8-0.4-7.9l0,0l0,0
	c-2.3-2.1-5.8-1.9-7.9,0.4S78.3,82.7,80.6,84.8L80.6,84.8z M74.6,77.1c1.1-2.4,0.2-5.3-2.1-6.7c-2-1-4.5-0.2-5.6,1.8
	c-0.1,0.2-0.2,0.4-0.2,0.6c-1.1,2.4-0.2,5.3,2.1,6.7c2,1,4.5,0.2,5.6-1.8C74.4,77.5,74.5,77.3,74.6,77.1z M58.2,78.6
	c1.7,0.5,3.6-0.4,4.1-2.2c0.1-0.3,0.1-0.6,0.1-0.9c0.3-2.3-1-4.5-3.1-5.4l0,0c-1.7-0.5-3.6,0.4-4.1,2.2c-0.1,0.3-0.1,0.6-0.1,0.9
	C54.7,75.5,56,77.7,58.2,78.6L58.2,78.6z M52.5,76.1c0.1-2.3-1.5-4.3-3.8-4.9c-1.9-0.2-3.6,1.2-3.8,3.1c0,0.2,0,0.5,0,0.7v0
	c-0.1,2.3,1.5,4.3,3.8,4.9c1.9,0.2,3.6-1.2,3.8-3.1C52.5,76.6,52.5,76.4,52.5,76.1L52.5,76.1z M72.5,89.6
	c10.2,10.2,11.5,19.1,5.1,25.5c-7.7,7.7-20.4,0-28.1,7.7s0,15.3-7.7,23c-5.5,5.6-14.5,5.8-20.1,0.3c-0.1-0.1-0.2-0.2-0.3-0.3
	c-15.3-15.3,0-40.8,10.2-51C44.4,81.9,63.6,80.6,72.5,89.6L72.5,89.6z"/>
<path class="st1" d="M202,80.8c-4.1-1.9-8.9-0.2-10.9,3.9c-0.1,0.3-0.2,0.5-0.3,0.8c-2,4.6-0.1,10,4.2,12.4
	c4.1,1.9,8.9,0.2,10.9-3.9c0.1-0.3,0.2-0.5,0.3-0.8C208.2,88.6,206.3,83.3,202,80.8z M210.2,104.4c2.1,2.3,5.6,2.5,7.9,0.4
	c2.3-2.1,2.5-5.6,0.4-7.9l0,0c-2.1-2.3-5.6-2.5-7.9-0.4C208.3,98.6,208.1,102.1,210.2,104.4L210.2,104.4L210.2,104.4z M215.5,116.3
	c1.4,2.2,4.2,3.1,6.7,2.1c2.2-0.7,3.3-3.1,2.6-5.3c-0.1-0.2-0.1-0.4-0.2-0.6c-1.4-2.2-4.2-3.1-6.7-2.1c-2.2,0.7-3.3,3.1-2.6,5.3
	C215.3,115.9,215.4,116.1,215.5,116.3L215.5,116.3z M216.4,126.8c0.9,2.2,3.1,3.5,5.4,3.1c1.8-0.1,3.2-1.6,3.2-3.4
	c0-0.3-0.1-0.6-0.1-0.9l0,0c-0.9-2.2-3.1-3.5-5.4-3.1c-1.8,0.1-3.2,1.6-3.2,3.4C216.3,126.3,216.3,126.5,216.4,126.8L216.4,126.8z
	 M218.8,132.5c-1.9-0.2-3.6,1.2-3.8,3.1c0,0.2,0,0.5,0,0.7c0.5,2.3,2.6,3.8,4.9,3.8h0c1.9,0.2,3.6-1.2,3.8-3.1c0-0.2,0-0.5,0-0.7
	C223.2,134,221.2,132.4,218.8,132.5L218.8,132.5z M200.3,153.3c-10.2,10.2-35.7,25.5-51,10.2c-5.6-5.5-5.8-14.5-0.3-20.1
	c0.1-0.1,0.2-0.2,0.3-0.3c7.7-7.7,15.3,0,23-7.7s0-20.4,7.7-28.1c6.4-6.4,15.3-5.1,25.5,5.1C214.4,121.4,213.1,140.6,200.3,153.3
	L200.3,153.3z"/>
<path class="st0" d="M201.8,33.8c-4.3,1.5-6.5,6.1-5,10.4c0.1,0.3,0.2,0.6,0.3,0.8c2.4,4.4,7.8,6.2,12.4,4.2c4.3-1.5,6.5-6.1,5-10.4
	c-0.1-0.3-0.2-0.6-0.3-0.8C211.7,33.7,206.4,31.8,201.8,33.8z M190.6,29.8c2.3,2.1,5.8,1.9,7.9-0.4c2.1-2.3,1.9-5.8-0.4-7.9l0,0
	c-2.3-2.1-5.8-1.9-7.9,0.4C188.1,24.1,188.3,27.7,190.6,29.8L190.6,29.8L190.6,29.8z M184.6,22.1c1.1-2.4,0.2-5.3-2.1-6.7
	c-2-1-4.5-0.2-5.6,1.8c-0.1,0.2-0.2,0.4-0.2,0.6c-1.1,2.4-0.2,5.3,2.1,6.7c2,1,4.5,0.2,5.6-1.8C184.4,22.5,184.5,22.3,184.6,22.1z
	 M168.2,23.6c1.7,0.5,3.6-0.4,4.1-2.2c0.1-0.3,0.1-0.6,0.1-0.9c0.3-2.3-1-4.5-3.1-5.4l0,0c-1.7-0.5-3.6,0.4-4.1,2.2
	c-0.1,0.3-0.1,0.6-0.1,0.9C164.7,20.5,166,22.7,168.2,23.6L168.2,23.6z M162.5,21.1c0.1-2.3-1.5-4.3-3.8-4.9
	c-1.9-0.2-3.6,1.2-3.8,3.1c0,0.2,0,0.5,0,0.7v0c-0.1,2.3,1.5,4.3,3.8,4.9c1.9,0.2,3.6-1.2,3.8-3.1C162.5,21.6,162.5,21.4,162.5,21.1
	L162.5,21.1z M182.5,34.6c10.2,10.2,11.5,19.1,5.1,25.5c-7.7,7.7-20.4,0-28.1,7.7s0,15.3-7.7,23c-5.5,5.6-14.5,5.8-20.1,0.3
	c-0.1-0.1-0.2-0.2-0.3-0.3c-15.3-15.3,0-40.8,10.2-51C154.4,26.9,173.6,25.6,182.5,34.6L182.5,34.6z"/>
</svg>
