<?xml version="1.0" encoding="utf-8"?>
<!-- Generator: Adobe Illustrator 25.3.0, SVG Export Plug-In . SVG Version: 6.00 Build 0)  -->
<svg version="1.1" id="Layer_1" xmlns="http://www.w3.org/2000/svg" xmlns:xlink="http://www.w3.org/1999/xlink" x="0px" y="0px"
	 viewBox="0 0 48 48" style="enable-background:new 0 0 48 48;" xml:space="preserve">
<style type="text/css">
	.st0{fill:#0D61A9;}
	.st1{fill:#F3C1BD;}
	.st2{fill:#3B4A62;}
	.st3{fill:#E0A7A4;}
	.st4{opacity:0.15;fill:url(#SVGID_1_);enable-background:new    ;}
	.st5{opacity:5.000000e-02;enable-background:new    ;}
	.st6{opacity:7.000000e-02;enable-background:new    ;}
	.st7{fill:#FFFFFF;}
</style>
<path class="st0" d="M34.6,11.1l2.6,2.6c0.2,0.2,0.6,0.2,0.9,0l0,0c0.2-0.2,0.2-0.6,0-0.9l-2.6-2.6c-0.2-0.2-0.6-0.2-0.9,0l0,0
	C34.3,10.5,34.3,10.9,34.6,11.1z"/>
<path class="st0" d="M27.7,18.1l2.6,2.6c0.2,0.2,0.6,0.2,0.9,0l0,0c0.2-0.2,0.2-0.6,0-0.9l-2.6-2.6c-0.2-0.2-0.6-0.2-0.9,0l0,0
	C27.4,17.4,27.4,17.8,27.7,18.1z"/>
<path class="st0" d="M33.7,13.7l0.9,0.9c0.2,0.2,0.6,0.2,0.9,0l0,0c0.2-0.2,0.2-0.6,0-0.9l-0.9-0.9c-0.2-0.2-0.6-0.2-0.9,0l0,0
	C33.5,13.1,33.5,13.5,33.7,13.7z"/>
<path class="st0" d="M32,15.5l0.9,0.9c0.2,0.2,0.6,0.2,0.9,0l0,0c0.2-0.2,0.2-0.6,0-0.9l-0.9-0.9c-0.2-0.2-0.6-0.2-0.9,0l0,0
	C31.7,14.8,31.7,15.2,32,15.5z"/>
<path class="st0" d="M30.3,17.2l0.9,0.9c0.2,0.2,0.6,0.2,0.9,0l0,0c0.2-0.2,0.2-0.6,0-0.9l-0.9-0.9c-0.2-0.2-0.6-0.2-0.9,0l0,0
	C30,16.6,30,17,30.3,17.2z"/>
<g>
	<path class="st1" d="M8.9,28.4H7.8c-2.3,0-4.3-1.4-4.8-3.4l0,0c-0.8-2.9,1.6-5.6,4.8-5.6h1.1V28.4z"/>
	<path class="st1" d="M39.1,28.4h1.1c2.3,0,4.3-1.4,4.8-3.4l0,0c0.8-2.9-1.6-5.6-4.8-5.6h-1.1V28.4z"/>
	<path class="st2" d="M42.1,24.8c0,10-8.1,17.1-18.1,17.1S5.9,34.8,5.9,24.8S14,5.7,24,5.7S42.1,14.8,42.1,24.8z"/>
	<path class="st3" d="M22.1,1.2c-6.4-1.3-8.5,8.3,0,8.3c3.7,0,11-2.3,11-8.3C33,1.2,29.1,2.6,22.1,1.2z"/>
</g>
<radialGradient id="SVGID_1_" cx="135.1732" cy="-80.0822" r="5.1076" gradientTransform="matrix(0.7808 0 0 -0.7066 -81.5432 -41.1841)" gradientUnits="userSpaceOnUse">
	<stop  offset="0.516" style="stop-color:#000000"/>
	<stop  offset="1" style="stop-color:#000000;stop-opacity:0"/>
</radialGradient>
<ellipse class="st4" cx="24" cy="15.4" rx="4" ry="3.6"/>
<path class="st5" d="M22,36h4c0.6,0,1-0.4,1-1V20c0-0.6-0.4-1-1-1h-4c-0.6,0-1,0.4-1,1v15C21,35.6,21.4,36,22,36z"/>
<path class="st6" d="M22.2,35.5h3.5c0.4,0,0.7-0.3,0.7-0.7V20.2c0-0.4-0.3-0.7-0.7-0.7h-3.5c-0.4,0-0.7,0.3-0.7,0.7v14.5
	C21.5,35.2,21.8,35.5,22.2,35.5z"/>
<path class="st7" d="M24,17.7c1.7,0,2.6-1.1,2.6-2.4S25.6,13,24,13s-2.6,1-2.6,2.3S22.3,17.7,24,17.7z"/>
<rect x="22" y="20" class="st7" width="4" height="15"/>
</svg>
